<svg xmlns="http://www.w3.org/2000/svg" xmlns:xlink="http://www.w3.org/1999/xlink" width="870" height="602.75"><rect width="870" height="602.75" rx="5" ry="5" class="a"/><svg y="0%" x="0%"><circle cx="20" cy="20" r="6" fill="#ff5f58"/><circle cx="40" cy="20" r="6" fill="#ffbd2e"/><circle cx="60" cy="20" r="6" fill="#18c132"/></svg><svg height="542.75" viewBox="0 0 83 54.275" width="830" x="15" xmlns="http://www.w3.org/2000/svg" xmlns:xlink="http://www.w3.org/1999/xlink" y="50"><style>@keyframes o{0%{transform:translateX(0)}1.3%{transform:translateX(-83px)}1.4%{transform:translateX(-664px)}9.7%{transform:translateX(-747px)}13.3%{transform:translateX(-830px)}17.4%{transform:translateX(-913px)}20.7%{transform:translateX(-996px)}23.7%{transform:translateX(-1079px)}28.5%{transform:translateX(-1162px)}31.2%{transform:translateX(-1245px)}34.1%{transform:translateX(-1328px)}39.1%{transform:translateX(-1411px)}40.9%{transform:translateX(-1494px)}44%{transform:translateX(-1577px)}47%{transform:translateX(-1660px)}49.9%{transform:translateX(-1743px)}53.7%{transform:translateX(-1826px)}56%{transform:translateX(-1909px)}59%{transform:translateX(-1992px)}63.9%{transform:translateX(-2075px)}66.7%{transform:translateX(-2158px)}70.8%{transform:translateX(-2241px)}78.3%{transform:translateX(-2324px)}78.4%{transform:translateX(-2490px)}79.9%{transform:translateX(-2573px)}80%{transform:translateX(-2739px)}82.6%{transform:translateX(-2988px)}83%{transform:translateX(-3818px)}83.1%{transform:translateX(-4316px)}to{transform:translateX(-4482px)}}.a{fill:#282d35}.g{fill:#d290e4}.h{fill:#a8cc8c}.i{fill:#b9c0cb}.j{fill:#6f7783;text-decoration:underline}.k,.q{font-weight:700}.k{text-decoration:underline;fill:#6f7783}.q{fill:#e88388}</style><g font-size="1.67" font-family="Monaco,Consolas,Menlo,'Bitstream Vera Sans Mono','Powerline Symbols',monospace"><defs><symbol id="1"><text y="1.67" fill="#71bef2">~</text></symbol><symbol id="2"><text y="1.67" class="g">❯</text></symbol><symbol id="3"><text y="1.67" class="g">❯</text><text x="2.004" y="1.67" class="h">cash</text></symbol><symbol id="4"><text y="1.67" class="g">❯</text><text x="2.004" y="1.67" class="h">cash</text><text x="7.014" y="1.67" class="i">10</text></symbol><symbol id="5"><text y="1.67" class="g">❯</text><text x="2.004" y="1.67" class="h">cash</text><text x="7.014" y="1.67" class="i">10</text><text x="10.02" y="1.67" class="i">usd</text></symbol><symbol id="6"><text y="1.67" class="g">❯</text><text x="2.004" y="1.67" class="h">cash</text><text x="7.014" y="1.67" class="i">10</text><text x="10.02" y="1.67" class="i">usd</text><text x="14.028" y="1.67" class="i">eur</text></symbol><symbol id="7"><text y="1.67" class="g">❯</text><text x="2.004" y="1.67" class="h">cash</text><text x="7.014" y="1.67" class="i">10</text><text x="10.02" y="1.67" class="i">usd</text><text x="14.028" y="1.67" class="i">eur</text><text x="18.036" y="1.67" class="i">pln</text></symbol><symbol id="8"><text y="1.67" class="h">✔</text><text x="2.004" y="1.67" class="h">8.14</text><text x="7.014" y="1.67" class="i">(EUR)</text><text x="13.026" y="1.67" class="i">Euro</text></symbol><symbol id="9"><text y="1.67" class="h">✔</text><text x="2.004" y="1.67" class="h">34.19</text><text x="8.016" y="1.67" class="i">(PLN)</text><text x="14.028" y="1.67" class="i">Polish</text><text x="21.042" y="1.67" class="i">Zloty</text></symbol><symbol id="10"><text x="1.002" y="1.67" class="j">Conversion</text><text x="12.024" y="1.67" class="j">of</text><text x="15.03" y="1.67" class="k">USD</text><text x="19.038" y="1.67" class="k">10</text></symbol><symbol id="11"><text y="1.67" fill="#e88388">❯</text></symbol><symbol id="a"><path fill="transparent" d="M0 0h83v25H0z"/></symbol><symbol id="b"><path fill="#6f7683" d="M0 0h1.102v2.171H0z"/></symbol></defs><path class="a" d="M0 0h83v54.275H0z"/><g style="animation-duration:7.653328s;animation-iteration-count:infinite;animation-name:o;animation-timing-function:steps(1,end)"><svg width="4565"><svg><use xlink:href="#a"/><use xlink:href="#b" x="-.004"/></svg><svg x="83"><use xlink:href="#a"/><use xlink:href="#b" x="-.004"/></svg><svg x="166"><use xlink:href="#a"/><use xlink:href="#b" x="-.004" y="4.317"/><use xlink:href="#1" y="2.171"/></svg><svg x="249"><use xlink:href="#a"/><use xlink:href="#b" x="-.004" y="4.317"/><use xlink:href="#1" y="2.171"/></svg><svg x="332"><use xlink:href="#a"/><use xlink:href="#b" x="-.004" y="4.317"/><use xlink:href="#1" y="2.171"/></svg><svg x="415"><use xlink:href="#a"/><use xlink:href="#b" x="1.996" y="4.317"/><use xlink:href="#1" y="2.171"/><use xlink:href="#2" y="4.342"/></svg><svg x="498"><use xlink:href="#a"/><use xlink:href="#b" x="1.996" y="4.317"/><use xlink:href="#1" y="2.171"/><use xlink:href="#2" y="4.342"/></svg><svg x="581"><use xlink:href="#a"/><use xlink:href="#b" x="1.996" y="4.317"/><use xlink:href="#1" y="2.171"/><use xlink:href="#2" y="4.342"/></svg><svg x="664"><use xlink:href="#a"/><use xlink:href="#b" x="1.996" y="4.317"/><use xlink:href="#1" y="2.171"/><use xlink:href="#2" y="4.342"/></svg><svg x="747"><use xlink:href="#a"/><use xlink:href="#b" x="2.996" y="4.317"/><use xlink:href="#1" y="2.171"/><text y="6.012" class="g">❯</text><text x="2.004" y="6.012" class="h">c</text></svg><svg x="830"><use xlink:href="#a"/><use xlink:href="#b" x="3.996" y="4.317"/><use xlink:href="#1" y="2.171"/><text y="6.012" class="g">❯</text><text x="2.004" y="6.012" class="q">ca</text></svg><svg x="913"><use xlink:href="#a"/><use xlink:href="#b" x="4.996" y="4.317"/><use xlink:href="#1" y="2.171"/><text y="6.012" class="g">❯</text><text x="2.004" y="6.012" class="q">cas</text></svg><svg x="996"><use xlink:href="#a"/><use xlink:href="#b" x="5.996" y="4.317"/><use xlink:href="#1" y="2.171"/><use xlink:href="#3" y="4.342"/></svg><svg x="1079"><use xlink:href="#a"/><use xlink:href="#b" x="6.996" y="4.317"/><use xlink:href="#1" y="2.171"/><use xlink:href="#3" y="4.342"/></svg><svg x="1162"><use xlink:href="#a"/><use xlink:href="#b" x="7.996" y="4.317"/><use xlink:href="#1" y="2.171"/><text y="6.012" class="g">❯</text><text x="2.004" y="6.012" class="h">cash</text><text x="7.014" y="6.012" class="i">1</text></svg><svg x="1245"><use xlink:href="#a"/><use xlink:href="#b" x="8.996" y="4.317"/><use xlink:href="#1" y="2.171"/><use xlink:href="#4" y="4.342"/></svg><svg x="1328"><use xlink:href="#a"/><use xlink:href="#b" x="9.996" y="4.317"/><use xlink:href="#1" y="2.171"/><use xlink:href="#4" y="4.342"/></svg><svg x="1411"><use xlink:href="#a"/><use xlink:href="#b" x="10.996" y="4.317"/><use xlink:href="#1" y="2.171"/><text y="6.012" class="g">❯</text><text x="2.004" y="6.012" class="h">cash</text><text x="7.014" y="6.012" class="i">10</text><text x="10.02" y="6.012" class="i">u</text></svg><svg x="1494"><use xlink:href="#a"/><use xlink:href="#b" x="11.996" y="4.317"/><use xlink:href="#1" y="2.171"/><text y="6.012" class="g">❯</text><text x="2.004" y="6.012" class="h">cash</text><text x="7.014" y="6.012" class="i">10</text><text x="10.02" y="6.012" class="i">us</text></svg><svg x="1577"><use xlink:href="#a"/><use xlink:href="#b" x="12.996" y="4.317"/><use xlink:href="#1" y="2.171"/><use xlink:href="#5" y="4.342"/></svg><svg x="1660"><use xlink:href="#a"/><use xlink:href="#b" x="13.996" y="4.317"/><use xlink:href="#1" y="2.171"/><use xlink:href="#5" y="4.342"/></svg><svg x="1743"><use xlink:href="#a"/><use xlink:href="#b" x="14.996" y="4.317"/><use xlink:href="#1" y="2.171"/><text y="6.012" class="g">❯</text><text x="2.004" y="6.012" class="h">cash</text><text x="7.014" y="6.012" class="i">10</text><text x="10.02" y="6.012" class="i">usd</text><text x="14.028" y="6.012" class="i">e</text></svg><svg x="1826"><use xlink:href="#a"/><use xlink:href="#b" x="15.996" y="4.317"/><use xlink:href="#1" y="2.171"/><text y="6.012" class="g">❯</text><text x="2.004" y="6.012" class="h">cash</text><text x="7.014" y="6.012" class="i">10</text><text x="10.02" y="6.012" class="i">usd</text><text x="14.028" y="6.012" class="i">eu</text></svg><svg x="1909"><use xlink:href="#a"/><use xlink:href="#b" x="16.996" y="4.317"/><use xlink:href="#1" y="2.171"/><use xlink:href="#6" y="4.342"/></svg><svg x="1992"><use xlink:href="#a"/><use xlink:href="#b" x="17.996" y="4.317"/><use xlink:href="#1" y="2.171"/><use xlink:href="#6" y="4.342"/></svg><svg x="2075"><use xlink:href="#a"/><use xlink:href="#b" x="18.996" y="4.317"/><use xlink:href="#1" y="2.171"/><text y="6.012" class="g">❯</text><text x="2.004" y="6.012" class="h">cash</text><text x="7.014" y="6.012" class="i">10</text><text x="10.02" y="6.012" class="i">usd</text><text x="14.028" y="6.012" class="i">eur</text><text x="18.036" y="6.012" class="i">p</text></svg><svg x="2158"><use xlink:href="#a"/><use xlink:href="#b" x="19.996" y="4.317"/><use xlink:href="#1" y="2.171"/><text y="6.012" class="g">❯</text><text x="2.004" y="6.012" class="h">cash</text><text x="7.014" y="6.012" class="i">10</text><text x="10.02" y="6.012" class="i">usd</text><text x="14.028" y="6.012" class="i">eur</text><text x="18.036" y="6.012" class="i">pl</text></svg><svg x="2241"><use xlink:href="#a"/><use xlink:href="#b" x="20.996" y="4.317"/><use xlink:href="#1" y="2.171"/><use xlink:href="#7" y="4.342"/></svg><svg x="2324"><use xlink:href="#a"/><use xlink:href="#b" x="20.996" y="4.317"/><use xlink:href="#1" y="2.171"/><use xlink:href="#7" y="4.342"/></svg><svg x="2407"><use xlink:href="#a"/><use xlink:href="#b" x="-.004" y="6.488"/><use xlink:href="#1" y="2.171"/><use xlink:href="#7" y="4.342"/></svg><svg x="2490"><use xlink:href="#a"/><use xlink:href="#b" x="-.004" y="6.488"/><use xlink:href="#1" y="2.171"/><use xlink:href="#7" y="4.342"/></svg><svg x="2573"><use xlink:href="#a"/><use xlink:href="#b" x="-.004" y="8.659"/><use xlink:href="#1" y="2.171"/><use xlink:href="#7" y="4.342"/></svg><svg x="2656"><use xlink:href="#a"/><use xlink:href="#1" y="2.171"/><use xlink:href="#7" y="4.342"/></svg><svg x="2739"><use xlink:href="#a"/><use xlink:href="#1" y="2.171"/><use xlink:href="#7" y="4.342"/><text y="10.354" class="h">EUR</text><text x="4.008" y="10.354" class="i">Converting</text><text x="15.03" y="10.354" class="i">currency...</text></svg><svg x="2822"><use xlink:href="#a"/><use xlink:href="#1" y="2.171"/><use xlink:href="#7" y="4.342"/></svg><svg x="2905"><use xlink:href="#a"/><use xlink:href="#1" y="2.171"/><use xlink:href="#7" y="4.342"/></svg><svg x="2988"><use xlink:href="#a"/><use xlink:href="#1" y="2.171"/><use xlink:href="#7" y="4.342"/><text y="10.354" class="h">PLN</text><text x="4.008" y="10.354" class="i">Converting</text><text x="15.03" y="10.354" class="i">currency...</text></svg><svg x="3071"><use xlink:href="#a"/><use xlink:href="#1" y="2.171"/><use xlink:href="#7" y="4.342"/></svg><svg x="3154"><use xlink:href="#a"/><use xlink:href="#1" y="2.171"/><use xlink:href="#7" y="4.342"/></svg><svg x="3237"><use xlink:href="#a"/><use xlink:href="#b" x="-.004" y="8.659"/><use xlink:href="#1" y="2.171"/><use xlink:href="#7" y="4.342"/></svg><svg x="3320"><use xlink:href="#a"/><use xlink:href="#b" x="-.004" y="10.83"/><use xlink:href="#1" y="2.171"/><use xlink:href="#7" y="4.342"/><use xlink:href="#8" y="8.684"/></svg><svg x="3403"><use xlink:href="#a"/><use xlink:href="#b" x="-.004" y="10.83"/><use xlink:href="#1" y="2.171"/><use xlink:href="#7" y="4.342"/><use xlink:href="#8" y="8.684"/></svg><svg x="3486"><use xlink:href="#a"/><use xlink:href="#b" x="-.004" y="13.001"/><use xlink:href="#1" y="2.171"/><use xlink:href="#7" y="4.342"/><use xlink:href="#8" y="8.684"/><use xlink:href="#9" y="10.855"/></svg><svg x="3569"><use xlink:href="#a"/><use xlink:href="#b" x="-.004" y="15.172"/><use xlink:href="#1" y="2.171"/><use xlink:href="#7" y="4.342"/><use xlink:href="#8" y="8.684"/><use xlink:href="#9" y="10.855"/></svg><svg x="3652"><use xlink:href="#a"/><use xlink:href="#b" x="-.004" y="17.343"/><use xlink:href="#1" y="2.171"/><use xlink:href="#7" y="4.342"/><use xlink:href="#8" y="8.684"/><use xlink:href="#9" y="10.855"/><use xlink:href="#10" y="15.197"/></svg><svg x="3735"><use xlink:href="#a"/><use xlink:href="#b" x="-.004" y="17.343"/><use xlink:href="#1" y="2.171"/><use xlink:href="#7" y="4.342"/><use xlink:href="#8" y="8.684"/><use xlink:href="#9" y="10.855"/><use xlink:href="#10" y="15.197"/></svg><svg x="3818"><use xlink:href="#a"/><use xlink:href="#b" x="-.004" y="17.343"/><use xlink:href="#1" y="2.171"/><use xlink:href="#7" y="4.342"/><use xlink:href="#8" y="8.684"/><use xlink:href="#9" y="10.855"/><use xlink:href="#10" y="15.197"/></svg><svg x="3901"><use xlink:href="#a"/><use xlink:href="#b" x="-.004" y="21.685"/><use xlink:href="#1" y="2.171"/><use xlink:href="#7" y="4.342"/><use xlink:href="#8" y="8.684"/><use xlink:href="#9" y="10.855"/><use xlink:href="#10" y="15.197"/><use xlink:href="#1" y="19.539"/></svg><svg x="3984"><use xlink:href="#a"/><use xlink:href="#b" x="-.004" y="21.685"/><use xlink:href="#1" y="2.171"/><use xlink:href="#7" y="4.342"/><use xlink:href="#8" y="8.684"/><use xlink:href="#9" y="10.855"/><use xlink:href="#10" y="15.197"/><use xlink:href="#1" y="19.539"/></svg><svg x="4067"><use xlink:href="#a"/><use xlink:href="#b" x="-.004" y="21.685"/><use xlink:href="#1" y="2.171"/><use xlink:href="#7" y="4.342"/><use xlink:href="#8" y="8.684"/><use xlink:href="#9" y="10.855"/><use xlink:href="#10" y="15.197"/><use xlink:href="#1" y="19.539"/></svg><svg x="4150"><use xlink:href="#a"/><use xlink:href="#b" x="1.996" y="21.685"/><use xlink:href="#1" y="2.171"/><use xlink:href="#7" y="4.342"/><use xlink:href="#8" y="8.684"/><use xlink:href="#9" y="10.855"/><use xlink:href="#10" y="15.197"/><use xlink:href="#1" y="19.539"/><use xlink:href="#11" y="21.71"/></svg><svg x="4233"><use xlink:href="#a"/><use xlink:href="#b" x="1.996" y="21.685"/><use xlink:href="#1" y="2.171"/><use xlink:href="#7" y="4.342"/><use xlink:href="#8" y="8.684"/><use xlink:href="#9" y="10.855"/><use xlink:href="#10" y="15.197"/><use xlink:href="#1" y="19.539"/><use xlink:href="#11" y="21.71"/></svg><svg x="4316"><use xlink:href="#a"/><use xlink:href="#b" x="1.996" y="21.685"/><use xlink:href="#1" y="2.171"/><use xlink:href="#7" y="4.342"/><use xlink:href="#8" y="8.684"/><use xlink:href="#9" y="10.855"/><use xlink:href="#10" y="15.197"/><use xlink:href="#1" y="19.539"/><use xlink:href="#11" y="21.71"/></svg><svg x="4399"><use xlink:href="#a"/><use xlink:href="#b" x="-.004" y="21.685"/><use xlink:href="#1" y="2.171"/><use xlink:href="#7" y="4.342"/><use xlink:href="#8" y="8.684"/><use xlink:href="#9" y="10.855"/><use xlink:href="#10" y="15.197"/><use xlink:href="#1" y="19.539"/><use xlink:href="#11" y="21.71"/></svg><svg x="4482"><use xlink:href="#a"/><use xlink:href="#b" x="-.004" y="23.856"/><use xlink:href="#1" y="2.171"/><use xlink:href="#7" y="4.342"/><use xlink:href="#8" y="8.684"/><use xlink:href="#9" y="10.855"/><use xlink:href="#10" y="15.197"/><use xlink:href="#1" y="19.539"/><use xlink:href="#11" y="21.71"/></svg></svg></g></g></svg></svg>